<svg width="159" height="46" viewBox="0 0 159 46" fill="none" xmlns="http://www.w3.org/2000/svg">
<g filter="url(#filter0_d_32_40)">
<path d="M7 23.9701C10.625 22.3939 18.3929 18.2958 20.4643 14.513C23.0536 9.78439 23.5714 4.46476 27.7143 1.5094C31.8571 -1.44595 38.0714 9.19332 40.6607 14.513C43.25 19.8326 50.5 23.9701 53.0893 23.9701C55.6786 23.9701 59.8214 15.104 62.4107 12.1487C65 9.19331 69.1429 9.78437 70.1786 12.1487C71.2143 14.513 76.9107 26.9254 82.0893 26.9254C87.2679 26.9254 86.75 22.788 97.1071 14.513C107.464 6.23796 109.536 18.6504 113.679 26.9254C117.821 35.2004 122.482 29.8808 127.661 19.8326C132.839 9.78438 138.536 9.78437 143.196 12.1487C146.925 14.0401 150.619 20.8177 152 23.9701" stroke="#EEA47F" stroke-width="2"/>
</g>
<defs>
<filter id="filter0_d_32_40" x="0.601257" y="-0.000244141" width="158.315" height="46.001" filterUnits="userSpaceOnUse" color-interpolation-filters="sRGB">
<feFlood flood-opacity="0" result="BackgroundImageFix"/>
<feColorMatrix in="SourceAlpha" type="matrix" values="0 0 0 0 0 0 0 0 0 0 0 0 0 0 0 0 0 0 127 0" result="hardAlpha"/>
<feOffset dy="8"/>
<feGaussianBlur stdDeviation="3"/>
<feComposite in2="hardAlpha" operator="out"/>
<feColorMatrix type="matrix" values="0 0 0 0 0 0 0 0 0 0 0 0 0 0 0 0 0 0 0.25 0"/>
<feBlend mode="normal" in2="BackgroundImageFix" result="effect1_dropShadow_32_40"/>
<feBlend mode="normal" in="SourceGraphic" in2="effect1_dropShadow_32_40" result="shape"/>
</filter>
</defs>
</svg>
